Coordinates
version=1
nRows=19
nColumns=24
inDegrees=yes

Units are S.I. units (second, meters, Newtons, ...)
Angles are in degrees.

endheader
time	pelvis_tilt	pelvis_list	pelvis_rotation	pelvis_tx	pelvis_ty	pelvis_tz	hip_flexion_r	hip_adduction_r	hip_rotation_r	knee_angle_r	ankle_angle_r	subtalar_angle_r	mtp_angle_r	hip_flexion_l	hip_adduction_l	hip_rotation_l	knee_angle_l	ankle_angle_l	subtalar_angle_l	mtp_angle_l	lumbar_extension	lumbar_bending	lumbar_rotation
      0.70400000	     -2.37734326	      3.03137847	      9.96283283	     -0.08198278	      0.99309676	      0.27444943	     29.67472923	     -4.21059095	     -6.78825205	     -0.46362626	      7.58835620	     -4.95001795	      4.77936992	    -13.10977334	      6.32293020	     13.85395936	    -15.47504316	     15.00838765	     -7.77252259	     -2.07104846	     -8.06289003	     -4.72098054	     -8.19561258
      0.70816667	     -2.38619265	      2.92222045	     10.07018584	     -0.07612348	      0.99248393	      0.27454391	     29.74182248	     -4.11964435	     -6.68132568	     -1.10927088	      7.67763892	     -5.22620854	      4.78930107	    -13.31935658	      6.11689002	     13.85451112	    -15.67753503	     14.87202475	     -7.67174741	     -2.07148844	     -7.98169767	     -4.57420409	     -8.22882223
      0.71233333	     -2.44574233	      2.81329355	     10.15912220	     -0.07019754	      0.99179948	      0.27471015	     29.81047828	     -4.00613392	     -6.32278929	     -1.64360648	      7.47056456	     -6.00189580	      4.83404553	    -13.45305372	      5.91405758	     13.74595909	    -15.92415590	     14.79866371	     -7.39239205	     -2.03100926	     -7.79276950	     -4.43036959	     -8.37632519
      0.71650000	     -2.45588467	      2.68011337	     10.25525267	     -0.06420904	      0.99123038	      0.27485683	     29.82394071	     -3.86528421	     -6.09536618	     -2.18574303	      7.26500231	     -6.67846943	      4.89471096	    -13.64554935	      5.67704298	     13.68743829	    -16.15005577	     14.64742146	     -7.21874118	     -1.96561264	     -7.66797730	     -4.24154247	     -8.43898311
      0.72066667	     -2.46773081	      2.54587067	     10.34798357	     -0.05819828	      0.99067619	      0.27501816	     29.83524767	     -3.71784484	     -5.88628224	     -2.72103347	      6.98850130	     -7.38957605	      4.97267522	    -13.82399825	      5.44051350	     13.62011470	    -16.39783351	     14.47495611	     -7.05456418	     -1.87073293	     -7.54766459	     -4.06820917	     -8.50220602
      0.72483333	     -2.48289171	      2.40292345	     10.43952817	     -0.05212976	      0.99015361	      0.27519649	     29.83740849	     -3.55603089	     -5.69731127	     -3.23197463	      6.62824863	     -8.13283151	      5.06560194	    -13.99105830	      5.19415408	     13.54433245	    -16.65662448	     14.27605467	     -6.89256012	     -1.74881420	     -7.40185303	     -3.87690800	     -8.56007374
      0.72900000	     -2.49173957	      2.25128837	     10.52562900	     -0.04602368	      0.98966684	      0.27539064	     29.82555509	     -3.37812864	     -5.52845408	     -3.72413609	      6.19291988	     -8.90946011	      5.17551058	    -14.15425281	      4.93781689	     13.45468851	    -16.93015723	     14.05331073	     -6.72804469	     -1.59762369	     -7.26649790	     -3.68014360	     -8.61215260
      0.73316667	     -2.49554316	      2.11054086	     10.61137132	     -0.03992425	      0.98921079	      0.27560775	     29.80116628	     -3.20276794	     -5.34296490	     -4.19663647	      5.68227190	     -9.78441741	      5.33429008	    -14.29954350	      4.69200908	     13.34285800	    -17.25111728	     13.84701131	     -6.55200379	     -1.36937184	     -7.15174372	     -3.51090808	     -8.65367429
      0.73733333	     -2.50245753	      1.94250430	     10.68836770	     -0.03374276	      0.98878956	      0.27584217	     29.77201258	     -2.99407877	     -5.20650592	     -4.64440381	      5.09859602	    -10.61273814	      5.51720107	    -14.43938288	      4.41827633	     13.22555850	    -17.56250824	     13.57741244	     -6.38090057	     -1.09773557	     -7.00452921	     -3.29484339	     -8.69472244
      0.74150000	     -2.50923129	      1.76410399	     10.75546339	     -0.02752390	      0.98839750	      0.27608471	     29.74004339	     -2.76906547	     -5.08725776	     -5.07953796	      4.45520539	    -11.43493213	      5.71244888	    -14.56760520	      4.13640943	     13.09022015	    -17.88941308	     13.28360279	     -6.21071020	     -0.79434668	     -6.85402193	     -3.06653567	     -8.72109493
      0.74566667	     -2.51269743	      1.57761218	     10.81581265	     -0.02127650	      0.98805056	      0.27635948	     29.70072543	     -2.52822501	     -4.98760748	     -5.49802276	      3.75527287	    -12.24164276	      5.92392268	    -14.68394201	      3.84578670	     12.93851257	    -18.23751783	     12.95196066	     -6.03707096	     -0.45252925	     -6.69862907	     -2.83088716	     -8.73846195
      0.74983333	     -2.53251460	      1.38348032	     10.86976550	     -0.01500101	      0.98771385	      0.27664275	     29.68068817	     -2.27867588	     -4.90356329	     -5.91526994	      3.01485502	    -13.02699024	      6.14086538	    -14.76680096	      3.55340240	     12.77607807	    -18.61080644	     12.59886355	     -5.87327636	     -0.08422552	     -6.52137506	     -2.58665915	     -8.75069130
      0.75400000	     -2.53480825	      1.18196540	     10.90559491	     -0.00869588	      0.98743768	      0.27696424	     29.65224116	     -2.01387840	     -4.88243438	     -6.34239684	      2.21681510	    -13.69010962	      8.39115651	    -14.85178424	      3.24482142	     12.53651178	    -18.99120079	     12.13188747	     -5.63666355	      3.76336723	     -6.36234786	     -2.34647484	     -8.72538078
      0.75816667	     -2.53420776	      0.96775228	     10.94271882	     -0.00237965	      0.98721171	      0.27727847	     29.61178265	     -1.73158370	     -4.83130334	     -6.75475332	      1.46995430	    -14.38874984	      8.39077544	    -14.92973118	      2.93709244	     12.37825928	    -19.39701230	     11.67976986	     -5.56078170	      3.83289861	     -6.20228020	     -2.06905597	     -8.74573405
      0.76233333	     -2.53409634	      0.75462516	     10.95893003	      0.00394995	      0.98702622	      0.27764806	     29.57673566	     -1.43797807	     -4.76598115	     -7.17144866	      0.68792242	    -15.05520864	      8.42713145	    -14.98451370	      2.62729272	     12.13938693	    -19.83334276	     11.20711033	     -5.35912820	      3.99876070	     -6.03938715	     -1.80653524	     -8.72789163
      0.76650000	     -2.54956866	      0.51833876	     10.97766017	      0.01029538	      0.98686248	      0.27800662	     29.56633529	     -1.12897327	     -4.74820032	     -7.60285244	     -0.07539072	    -15.64773657	      8.47811380	    -14.99457933	      2.30002590	     11.89708983	    -20.31447493	     10.73505747	     -5.20040517	      4.19880679	     -5.84833526	     -1.51191420	     -8.70003759
      0.77066667	     -2.54227502	      0.27421120	     10.97338912	      0.01665323	      0.98676855	      0.27840831	     29.53874152	     -0.79682452	     -4.71820295	     -8.04660706	     -0.82056468	    -16.19843370	      8.54880510	    -15.01481857	      1.96315987	     11.61848255	    -20.80822249	     10.21197858	     -5.01676765	      4.46088729	     -5.68786813	     -1.20153691	     -8.65664101
      0.77483333	     -2.53067382	      0.04632525	     10.94312867	      0.02300668	      0.98672825	      0.27888176	     29.51441325	     -0.46487377	     -4.64564386	     -8.51122426	     -1.54391307	    -16.71842152	      8.69493350	    -15.02658046	      1.64296692	     11.29798600	    -21.31583093	      9.60356457	     -4.76727256	      4.98212740	     -5.54935409	     -0.93132904	     -8.60488622
      0.77900000	     -2.53328408	     -0.20561438	     10.91339175	      0.02937188	      0.98671072	      0.27934262	     29.51662316	     -0.11707306	     -4.61543372	     -9.00211663	     -2.20977194	    -17.16352582	      8.87297393	    -14.99147231	      1.30260921	     10.95988297	    -21.87180043	      8.98259492	     -4.56869638	      5.66599022	     -5.37687578	     -0.62032028	     -8.53686766
